<?xml version="1.0" encoding="UTF-8"?><svg id="LOGO_LOCKUP" xmlns="http://www.w3.org/2000/svg" width="536.16" height="222.61" viewBox="0 0 536.16 222.61"><path d="M70.07,121.43c2.16,2.16,2.16,5.65,0,7.81l-1.82,1.81c-2.16,2.15-5.65,2.15-7.81,0l-12.48-12.48c-2.15-2.17-2.15-5.66,0-7.82l1.82-1.81c2.16-2.16,5.65-2.16,7.81,0l12.48,12.49ZM68.83,97.7c-2.16-2.16-5.65-2.16-7.81,0l-1.81,1.81c-2.16,2.16-2.16,5.65,0,7.81l12.48,12.49c2.16,2.16,5.65,2.16,7.81,0l1.82-1.82c2.15-2.17,2.15-5.66,0-7.82l-12.48-12.48ZM102.11,108.7c-2.16-2.15-5.66-2.15-7.81,0l-1.81,1.82c-2.16,2.16-2.16,5.65,0,7.82l12.48,12.48c2.15,2.15,5.65,2.15,7.81,0l1.81-1.81c2.16-2.16,2.16-5.65,0-7.81l-12.48-12.49ZM113.35,97.46c-2.16-2.15-5.65-2.15-7.81,0l-1.81,1.82c-2.16,2.16-2.16,5.65,0,7.81l12.48,12.49c2.16,2.16,5.65,2.16,7.81,0l1.81-1.82c2.16-2.16,2.16-5.66,0-7.81l-12.48-12.49ZM92.6,85.09c2.16-2.15,2.16-5.65,0-7.81l-1.81-1.81c-2.16-2.16-5.65-2.16-7.81,0l-12.48,12.48c-2.16,2.16-2.16,5.65,0,7.81l1.81,1.81c2.16,2.16,5.65,2.16,7.81,0l12.48-12.48ZM103.84,96.33c2.16-2.16,2.16-5.65,0-7.81l-1.82-1.81c-2.15-2.16-5.65-2.16-7.81,0l-12.48,12.48c-2.16,2.16-2.16,5.65,0,7.81l1.81,1.82c2.16,2.16,5.65,2.16,7.81,0l12.48-12.48ZM92.61,128.97c2.16-2.16,2.16-5.65,0-7.81l-1.82-1.81c-2.16-2.16-5.65-2.16-7.81,0l-12.48,12.48c-2.16,2.16-2.16,5.65,0,7.81l1.81,1.81c2.16,2.16,5.65,2.16,7.81,0l12.48-12.48ZM103.85,140.22c2.16-2.16,2.16-5.66,0-7.81l-1.81-1.81c-2.15-2.15-5.65-2.15-7.81,0l-12.48,12.48c-2.16,2.16-2.16,5.65,0,7.81l1.81,1.81c2.16,2.16,5.65,2.16,7.81,0l12.48-12.48ZM194.69,129.19c.33.49,2.02,3.09,2.02,3.09-.94,3.96-3.37,9.05-3.37,9.05l-.37.14c-9.24,3.65-23.48,6.7-38.83.5-9.19-3.72-15.71-10.91-18.36-20.26-2.74-9.71-.82-20.34,5.15-28.45,6.59-8.95,17.26-13.87,31.73-14.63,5.45-.29,16.69,1.19,22.77,4.64l.5.28s.23,15.17.08,15.83l-.17.74s-4.5.16-4.5.16l-.24-1.37c-.76-4.4-2.77-16.21-19.23-15.36-7.05.37-12.73,3.9-16.97,9.48-5.16,6.79-6.74,16.2-4.44,26.49,2.23,10.03,9.85,16.47,15.69,18.72,2.46.95,10.24,2.71,16.15.02,5.15-2.34,10.03-6.1,12.4-9.09M250.6,145.35v-52.41c0-1.68,0-4.48-1.79-6.39-.25-.25-2.64-2.17-2.64-2.17v-2.32l14.1-2.83s1.26.81,1.26.81c0,0-.05,55.47-.03,56.21.18,5.39,3.87,5.76,3.87,5.76v3.33h-14.77ZM313.09,141.81c-2.53-.6-3.81-2.7-3.81-6.24l.02-33.23-1.26-.81-14.14,2.83v2.32s2.43,1.91,2.67,2.16c1.8,1.9,1.8,4.71,1.8,6.38v19.81c-4.63,3.51-8.9,4.75-11.79,3.38-2.34-1.12-3.67-3.88-3.74-7.79,0,.01,0-28.27,0-28.27l-1.26-.81-14.14,2.83v2.32s2.42,1.91,2.67,2.16c1.82,1.92,1.81,4.76,1.8,6.44v16.9c.12,3.24.28,4.36.63,5.79.88,3.63,3,6.17,6.14,7.33,4.99,1.86,12.1.05,19.68-4.97v4.59h15.49v-2.93l-.76-.18ZM383.3,141.81c-2.44-.58-3.72-2.68-3.8-6.24l-.03-20.35c0-4.67-2.43-13.51-11.65-13.51-6.85,0-11.5,4.06-13.73,6.29-1.48-3.14-4.37-6.29-9.99-6.29-4.32,0-8.42,1.64-12.21,4.89v-4.26s-1.26-.81-1.26-.81l-14.14,2.83v2.32s2.43,1.91,2.68,2.16c1.79,1.9,1.79,4.7,1.79,6.38v29.71s15.4,0,15.4,0v-2.93l-.76-.18c-2.41-.57-3.62-2.62-3.71-6.26,0,.02-.01-20.49-.02-23.75,2.71-2.28,5.43-2.76,8.3-2.51,2.34.2,4.74,1.82,4.8,10.26,0-.01-.01,25.38-.01,25.38h15.37v-2.93l-.76-.18c-2.45-.58-3.69-2.63-3.78-6.26,0,.02,0-20.33,0-20.33,0-.54-.11-2.24-.3-3.33,2.77-2.37,5.45-2.85,8.4-2.6,2.33.2,4.74,1.82,4.8,10.26,0-.01,0,25.38,0,25.38h15.36v-2.93l-.75-.18ZM245.53,123.43c0-6.52-2.1-12.09-6.11-16.1-4.15-4.15-10.08-6.34-17.14-6.34-13.27,0-23.28,9.65-23.27,22.44,0,13.61,9.14,22.42,23.27,22.43,6.78,0,12.63-2.24,16.9-6.52,4.1-4.1,6.35-9.75,6.35-15.91M222.29,141.07c-8.62,0-11.04-6.78-11.04-17.7,0-8.04,2.41-17.71,11.04-17.71s11.05,9.67,11.04,17.71c-.01,10.93-2.42,17.7-11.04,17.7M435.4,87.99c0-3.15,2.57-5.71,5.73-5.71s5.72,2.56,5.72,5.71-2.57,5.71-5.72,5.71-5.73-2.56-5.73-5.71M436.15,144.92v-29.99c.02-1.75.03-4.41-1.72-6.27-.26-.25-2.68-2.17-2.68-2.17v-2.32l14.12-2.83,1.27.81s-.03,33.4-.03,33.38c.09,3.65,1.29,5.7,3.67,6.26l.76.18v2.93h-15.39ZM428.1,111.9c-2.98-5.35-6.92-8.64-11.7-9.81-6.63-1.61-13.27,1.28-17.39,3.74l.04-25.78s-1.27-.81-1.27-.81l-14.11,2.83v2.32s2.43,1.91,2.68,2.16c1.74,1.84,1.73,4.49,1.72,6.24l-.03,48.5v.6l.54.28c8.04,4.16,18.67,4.77,26.44,1.54,8.69-3.62,12.38-9.75,13.95-14.26,2.36-6.81,1.26-13.73-.87-17.56M416.34,135.11c-2.45,4.15-7.44,6.55-11.38,5.46-3.93-1.1-6.07-5.26-6-11.74,0,0,0-14.76.01-17.99.14-.07.28-.14.43-.22,2.37-1.21,6.8-3.47,12.7-.47,3.18,1.62,5.56,4.64,6.69,8.53,1.52,5.21.63,11.2-2.45,16.42M489.8,140.28l-.81-.15c-.64-.12-1.79-1.66-1.79-4.3v-19.73c0-5.71-1.84-10.18-5.16-12.6-3.05-2.21-7.24-2.55-12.11-.97-5.75,1.87-14.51,9.52-15.9,11.22l-.31.38.12.48c.12.5.78,1.51,1.22,1.89l.28.24h9.59s-.02-2.29-.02-2.69c0-3.93,2.59-5.81,4.75-6.21,2.19-.41,3.69-.2,4.73.66,1.48,1.23,2.23,3.98,2.23,8.19v2.51s-20.25,8.98-20.25,8.98l-.4.18-.13.41c-1.87,5.66-1.46,10.01,1.19,12.94,4.2,4.62,14.41,5.26,29.29,1.9,1.13-.29,3.49-.54,3.49-.54-.01,0-.01-2.8-.01-2.8M476.65,124.05v15.21c-3.33,2.34-6.69,2.58-9.06.61-2.59-2.14-3.15-6.19-1.42-9.93l10.48-5.88Z"/></svg>